<?xml version="1.0" standalone="no"?>
<!DOCTYPE svg PUBLIC "-//W3C//DTD SVG 20010904//EN"
 "http://www.w3.org/TR/2001/REC-SVG-20010904/DTD/svg10.dtd">
<svg version="1.0" xmlns="http://www.w3.org/2000/svg"
 width="1011.000000pt" height="1011.000000pt" viewBox="0 0 1011.000000 1011.000000"
 preserveAspectRatio="xMidYMid meet">
<metadata>
Created by potrace 1.14, written by Peter Selinger 2001-2017
</metadata>
<g transform="translate(0.000000,1011.000000) scale(0.100000,-0.100000)"
fill="#000000" stroke="none">
<path d="M5019 9950 c-8 -6 -7 -9 2 -13 11 -4 11 -6 1 -6 -8 -1 -10 -6 -6 -13
5 -8 0 -7 -11 2 -17 14 -18 13 -13 -7 3 -12 3 -22 -1 -21 -20 2 -30 -4 -25
-16 3 -8 -3 -20 -13 -27 -23 -16 -43 -46 -24 -34 9 5 9 2 0 -14 -9 -13 -16
-16 -20 -9 -4 6 -10 -3 -14 -21 -4 -17 -10 -29 -14 -27 -4 3 -13 -10 -21 -27
-17 -39 -35 -58 -45 -49 -5 4 -6 0 -2 -10 4 -11 -1 -18 -16 -22 -16 -4 -19 -8
-10 -17 9 -9 2 -20 -25 -46 -20 -20 -30 -32 -22 -28 8 4 4 -2 -9 -13 -15 -12
-21 -24 -16 -32 5 -8 4 -11 -3 -6 -14 9 -46 -39 -36 -55 5 -9 2 -10 -10 -6
-10 4 -15 3 -11 -4 4 -5 1 -17 -7 -26 -11 -14 -11 -16 2 -9 9 4 8 2 -2 -7 -10
-8 -14 -18 -10 -23 4 -4 -1 -2 -11 5 -15 12 -17 12 -11 -3 4 -9 1 -16 -6 -16
-9 0 -9 -4 1 -17 10 -11 10 -14 2 -9 -8 4 -13 2 -13 -4 0 -6 -5 -8 -10 -5 -6
4 -13 -7 -16 -24 -4 -17 -11 -31 -16 -31 -5 0 -6 5 -2 12 4 7 3 8 -5 4 -7 -4
-10 -13 -8 -19 2 -7 -6 -21 -18 -32 -12 -12 -19 -27 -17 -35 5 -13 3 -13 -13
0 -14 11 -17 12 -10 1 5 -9 0 -20 -16 -33 -13 -11 -18 -17 -12 -13 9 4 11 1 7
-9 -3 -9 -10 -14 -14 -11 -12 7 -23 -32 -14 -47 5 -9 2 -8 -9 1 -15 12 -17 12
-11 -3 3 -9 1 -16 -5 -16 -6 0 -10 -6 -8 -12 1 -7 -3 -12 -9 -11 -7 1 -11 -5
-10 -15 0 -9 -5 -16 -12 -14 -8 1 -11 -2 -6 -9 4 -7 -3 -20 -17 -31 -13 -11
-17 -17 -9 -13 10 4 9 2 -2 -8 -10 -8 -14 -18 -10 -22 4 -5 -2 -5 -12 -1 -17
6 -17 5 -5 -11 9 -11 10 -14 2 -9 -8 4 -13 2 -13 -4 0 -6 -4 -8 -10 -5 -6 4
-7 -1 -3 -11 4 -12 3 -15 -5 -10 -7 4 -12 1 -12 -9 0 -10 -5 -13 -12 -9 -10 6
-10 4 0 -8 10 -13 10 -18 1 -24 -8 -5 -9 -3 -4 6 5 8 3 11 -4 9 -7 -3 -12 -8
-11 -13 1 -4 -7 -14 -17 -23 -10 -8 -12 -12 -5 -8 6 3 12 2 12 -3 0 -6 -7 -13
-16 -16 -9 -3 -12 -11 -8 -18 5 -8 2 -9 -10 -5 -14 6 -16 3 -11 -13 4 -11 2
-20 -4 -20 -6 0 -11 -7 -11 -15 0 -8 -6 -15 -14 -15 -9 0 -13 -7 -11 -19 3
-15 -1 -18 -12 -14 -10 4 -14 2 -10 -4 4 -6 3 -13 -2 -15 -5 -1 -11 -9 -13
-17 -2 -8 -16 -28 -33 -44 -16 -16 -21 -23 -11 -16 16 12 15 8 -5 -23 -13 -20
-27 -34 -31 -32 -7 5 -12 -10 -9 -28 0 -4 -5 -5 -13 -2 -8 3 -17 0 -22 -7 -5
-8 -3 -10 5 -4 9 5 9 1 -1 -14 -7 -12 -16 -21 -20 -21 -4 0 -4 -8 -1 -17 5
-12 2 -15 -9 -11 -10 4 -15 1 -14 -10 0 -9 -4 -16 -10 -15 -7 1 -10 -6 -7 -17
5 -18 -4 -25 -28 -22 -4 1 -4 -8 -1 -20 3 -14 1 -19 -6 -14 -8 5 -12 -1 -12
-15 0 -17 -3 -19 -13 -10 -11 9 -13 5 -12 -19 2 -26 0 -28 -14 -17 -11 9 -13
9 -8 0 5 -7 -1 -21 -13 -33 -11 -11 -18 -26 -14 -33 4 -7 4 -9 -1 -5 -11 10
-38 -29 -30 -42 4 -6 -1 -7 -12 -3 -10 3 -15 3 -11 -2 4 -4 0 -14 -10 -22 -11
-10 -12 -12 -2 -8 9 4 7 0 -4 -9 -10 -9 -15 -20 -10 -27 5 -9 2 -10 -9 -6 -12
4 -15 1 -12 -14 3 -16 0 -19 -11 -15 -10 4 -14 1 -12 -6 3 -7 -8 -26 -24 -43
-15 -16 -35 -45 -43 -62 -9 -18 -20 -33 -25 -33 -6 0 -10 -7 -10 -15 0 -8 -8
-15 -17 -15 -15 0 -16 -2 -3 -10 9 -6 10 -10 3 -10 -6 0 -15 -9 -18 -20 -4
-11 -9 -19 -13 -16 -4 2 -17 -12 -30 -32 -13 -20 -17 -32 -10 -26 8 5 2 -2
-12 -15 -14 -13 -19 -20 -13 -17 9 5 11 2 7 -9 -4 -9 -13 -14 -22 -10 -12 5
-13 3 -2 -10 11 -13 11 -16 -1 -13 -8 2 -14 -4 -14 -12 0 -8 -12 -23 -28 -34
-23 -15 -26 -21 -15 -34 11 -13 11 -14 0 -8 -9 5 -15 1 -19 -13 -3 -11 -9 -19
-13 -16 -15 9 -21 -14 -11 -34 8 -14 7 -19 -2 -18 -35 1 -46 -4 -41 -18 4 -8
-1 -17 -10 -21 -9 -3 -13 -10 -10 -15 3 -5 0 -9 -6 -9 -6 0 -8 -4 -5 -10 3 -5
0 -10 -7 -10 -7 0 -19 -9 -26 -21 -11 -17 -11 -20 0 -13 10 6 11 5 1 -8 -7 -8
-9 -19 -5 -23 4 -5 2 -5 -4 -2 -7 4 -18 -1 -25 -10 -12 -14 -12 -16 0 -9 9 6
12 5 9 -5 -3 -8 -12 -14 -20 -13 -8 1 -14 -7 -14 -20 1 -12 -4 -20 -11 -19 -7
2 -10 -3 -7 -11 3 -8 0 -17 -5 -21 -6 -3 -9 -11 -6 -16 3 -5 -1 -6 -9 -3 -9 3
-13 11 -9 17 3 6 1 7 -6 3 -6 -4 -9 -11 -6 -16 3 -4 -1 -19 -8 -34 -11 -20
-16 -23 -26 -13 -10 9 -10 6 -2 -15 9 -23 8 -26 -9 -23 -13 3 -17 -1 -13 -11
3 -9 -1 -14 -12 -14 -9 0 -14 -4 -11 -9 3 -5 0 -11 -8 -14 -7 -3 -17 -18 -21
-34 -3 -15 -15 -36 -26 -46 -10 -10 -19 -27 -19 -37 0 -11 -5 -19 -12 -17 -7
1 -12 -6 -13 -16 0 -10 -6 -21 -13 -26 -8 -5 -13 -11 -13 -15 2 -7 -16 -30
-41 -54 -10 -9 -18 -24 -18 -34 0 -10 -12 -25 -27 -33 -16 -9 -19 -13 -8 -10
18 6 18 5 -3 -15 -13 -12 -27 -18 -35 -14 -8 5 -7 2 2 -9 11 -14 11 -18 -3
-23 -9 -3 -16 -14 -16 -25 0 -10 -10 -25 -22 -33 -12 -9 -18 -16 -13 -16 6 0
2 -5 -7 -11 -10 -5 -18 -17 -18 -24 0 -8 -5 -15 -11 -15 -5 0 -7 -4 -4 -10 3
-5 -1 -10 -10 -10 -9 0 -13 -4 -10 -10 3 -5 1 -10 -5 -10 -7 0 -9 -9 -5 -22 5
-18 4 -20 -4 -8 -8 11 -11 12 -11 2 0 -7 -4 -11 -9 -8 -5 4 -7 -3 -4 -14 4
-14 0 -20 -11 -20 -9 0 -15 -6 -13 -12 1 -7 -3 -12 -10 -11 -7 2 -10 -6 -8
-17 3 -14 -1 -17 -12 -13 -10 4 -14 2 -10 -4 4 -6 0 -14 -9 -17 -8 -3 -12 -10
-9 -16 3 -5 1 -10 -5 -10 -6 0 -8 -4 -5 -10 3 -5 1 -10 -6 -10 -7 0 -9 -3 -6
-7 4 -3 -4 -16 -17 -28 -19 -17 -22 -25 -13 -34 9 -9 8 -10 -7 -5 -13 5 -17 4
-13 -3 4 -6 0 -14 -8 -17 -8 -3 -14 -11 -13 -18 2 -7 -3 -12 -11 -10 -8 2 -11
-3 -8 -11 3 -7 -4 -19 -15 -26 -11 -7 -17 -19 -14 -27 3 -8 -1 -14 -9 -14 -7
0 -17 -5 -21 -12 -5 -7 -2 -9 7 -4 8 4 6 1 -3 -7 -10 -8 -18 -20 -18 -26 0 -7
-4 -10 -9 -7 -5 3 -12 -1 -15 -10 -4 -10 -2 -13 7 -9 6 4 3 -1 -7 -9 -11 -9
-23 -16 -26 -16 -3 0 -6 -10 -7 -21 -1 -12 -7 -27 -14 -33 -9 -8 -10 -7 -4 3
5 10 4 12 -4 7 -6 -4 -9 -12 -5 -17 3 -6 -3 -19 -15 -30 -12 -11 -19 -24 -16
-30 4 -5 -1 -12 -9 -15 -9 -3 -16 -14 -16 -23 0 -14 -2 -14 -10 -1 -8 13 -10
12 -11 -5 -1 -11 -1 -23 0 -27 0 -4 -9 -10 -20 -13 -15 -5 -18 -12 -14 -28 5
-16 4 -18 -3 -8 -7 9 -12 10 -16 2 -4 -6 -4 -11 0 -11 4 0 0 -6 -11 -13 -10
-8 -16 -18 -13 -23 6 -11 -28 -45 -36 -37 -3 4 -6 -1 -6 -9 0 -9 -6 -18 -14
-21 -8 -3 -12 -16 -11 -31 2 -14 -1 -24 -6 -20 -5 3 -6 11 -3 17 4 7 3 8 -1 4
-5 -4 -10 -15 -11 -25 -2 -9 -8 -18 -14 -20 -8 -3 -7 -8 1 -18 10 -12 9 -13
-6 -8 -13 5 -16 4 -11 -4 4 -7 2 -12 -4 -12 -6 0 -8 -4 -5 -10 3 -5 0 -10 -8
-10 -18 0 -28 -24 -20 -47 6 -16 5 -16 -10 -4 -15 12 -17 12 -11 -2 3 -10 -2
-21 -15 -28 -15 -10 -17 -16 -9 -27 6 -7 7 -12 2 -11 -23 4 -33 -3 -29 -22 3
-15 0 -19 -10 -15 -8 3 -15 1 -15 -5 0 -6 -5 -7 -12 -3 -8 5 -9 2 -5 -9 4 -11
-1 -21 -15 -28 -17 -9 -18 -13 -7 -20 12 -7 11 -9 -1 -10 -8 -1 -19 -1 -24 0
-5 1 -4 -4 2 -11 8 -11 6 -17 -9 -26 -10 -7 -19 -19 -19 -28 0 -8 -4 -12 -10
-9 -6 3 -7 -1 -4 -9 3 -9 1 -16 -6 -16 -6 0 -8 -4 -5 -10 3 -5 -1 -10 -9 -10
-8 0 -18 -5 -22 -12 -4 -7 -3 -8 4 -4 7 4 12 2 12 -3 0 -11 -15 -15 -34 -12
-5 1 -4 -4 3 -13 7 -8 8 -17 2 -20 -10 -7 -9 -31 2 -42 4 -4 7 -18 7 -31 0
-14 4 -21 10 -18 6 3 10 -2 10 -12 1 -22 24 -55 33 -46 4 3 7 -1 7 -10 0 -10
5 -17 10 -17 6 0 10 -7 10 -15 0 -8 4 -15 8 -15 5 0 14 -12 20 -26 7 -14 16
-23 22 -19 5 3 7 -4 5 -15 -3 -13 0 -18 7 -14 8 5 9 1 5 -10 -5 -11 -3 -15 5
-10 8 5 9 2 4 -11 -5 -15 -4 -16 9 -5 13 11 15 9 15 -14 0 -16 4 -25 10 -21 5
3 10 1 10 -4 0 -20 3 -26 19 -39 13 -11 13 -12 1 -7 -9 4 -7 0 4 -9 10 -8 19
-26 20 -39 0 -14 7 -24 16 -23 8 1 14 -6 14 -16 -1 -12 5 -15 25 -12 22 4 23
3 8 -7 -14 -8 -16 -14 -6 -25 6 -7 16 -11 22 -7 6 4 8 0 4 -10 -4 -10 1 -18
14 -22 10 -4 19 -13 19 -21 0 -8 5 -12 10 -9 14 9 12 -9 -2 -24 -11 -10 -9
-11 6 -5 16 6 18 4 12 -11 -4 -11 -4 -16 0 -13 8 8 34 -16 34 -32 0 -6 5 -8
13 -4 7 5 7 1 -3 -12 -8 -10 -11 -16 -6 -12 12 10 39 -20 33 -37 -7 -16 16
-38 28 -27 4 4 6 0 3 -8 -6 -21 33 -64 45 -48 5 8 6 5 2 -9 -4 -14 -2 -23 4
-23 6 0 13 -11 17 -25 3 -14 11 -22 17 -18 6 4 8 -2 5 -15 -4 -12 -2 -19 3
-16 16 9 40 -21 27 -34 -9 -9 -5 -10 12 -7 12 2 20 2 16 -2 -3 -3 0 -13 7 -21
10 -13 9 -15 -3 -8 -9 4 -8 1 2 -7 10 -8 18 -17 18 -21 0 -4 17 -28 37 -54 21
-25 31 -42 23 -38 -9 4 -8 1 3 -7 9 -8 17 -17 17 -21 0 -4 9 -16 20 -28 10
-12 17 -25 13 -31 -4 -6 4 -8 20 -5 23 5 25 3 16 -14 -10 -18 -8 -19 13 -13
12 3 19 3 13 -2 -15 -12 -12 -48 5 -48 8 0 16 -6 16 -12 1 -7 2 -17 3 -23 0
-5 8 -10 17 -10 8 0 13 -4 10 -8 -7 -11 31 -72 44 -72 6 0 8 -5 5 -10 -3 -5 1
-10 9 -10 9 0 13 -7 11 -20 -2 -13 2 -20 11 -20 8 0 14 -7 14 -15 0 -8 5 -15
10 -15 6 0 10 -7 10 -16 0 -8 5 -12 10 -9 6 3 10 -3 10 -14 0 -11 9 -25 20
-31 11 -6 18 -15 15 -21 -4 -5 -1 -9 5 -9 6 0 8 -5 4 -12 -5 -8 -2 -9 12 -4
10 4 15 4 11 0 -4 -4 0 -15 8 -24 9 -10 15 -22 13 -28 -2 -5 9 -21 24 -35 15
-14 24 -28 21 -31 -3 -3 2 -8 11 -12 9 -3 13 -10 10 -15 -3 -5 0 -9 6 -9 6 0
9 -4 6 -9 -4 -5 -1 -11 4 -13 6 -2 12 -13 12 -25 2 -14 7 -19 17 -15 9 3 12 1
7 -6 -4 -7 -2 -12 3 -12 6 0 11 -7 11 -16 0 -8 4 -13 9 -10 5 3 14 -8 21 -24
7 -16 16 -28 20 -25 4 3 11 -6 14 -20 4 -14 11 -25 17 -25 6 0 7 -4 4 -10 -3
-5 -1 -10 4 -10 6 0 11 -5 11 -11 0 -15 26 -39 35 -31 4 4 6 3 5 -3 -5 -25 1
-46 12 -39 8 5 9 2 5 -10 -4 -10 -3 -15 3 -11 6 4 13 -7 16 -24 4 -17 10 -28
15 -25 5 3 9 -2 9 -10 0 -9 5 -16 10 -16 6 0 10 -9 10 -20 0 -11 7 -20 15 -20
9 0 15 -6 14 -12 -1 -7 1 -21 6 -31 5 -13 11 -15 20 -7 11 9 13 6 11 -14 -3
-19 1 -24 16 -21 16 3 17 1 9 -9 -9 -10 -8 -15 4 -20 11 -4 14 -2 9 7 -4 7 -3
9 2 4 5 -5 10 -13 10 -18 1 -5 2 -14 3 -20 0 -5 6 -7 11 -4 6 3 10 -3 10 -14
0 -11 11 -32 24 -46 15 -16 22 -33 19 -42 -5 -12 -3 -14 7 -8 10 6 12 4 7 -8
-4 -10 -2 -16 6 -14 7 1 11 -4 9 -10 -1 -7 3 -13 9 -13 5 0 7 -4 4 -10 -3 -5
1 -10 9 -10 10 0 13 -7 11 -20 -2 -11 0 -18 6 -15 5 4 12 -1 15 -9 3 -9 12
-16 20 -16 8 0 14 -5 14 -11 0 -5 -4 -8 -8 -5 -5 3 -9 -1 -9 -9 0 -8 4 -12 9
-9 4 3 8 0 8 -6 0 -6 4 -8 10 -5 5 3 10 -1 10 -10 0 -20 25 -47 34 -37 4 3 4
-2 0 -12 -6 -15 -4 -17 6 -11 10 6 12 4 7 -9 -4 -10 -3 -15 3 -11 6 3 10 1 10
-5 0 -6 6 -8 13 -4 10 6 10 4 0 -7 -7 -7 -13 -18 -13 -23 0 -6 5 -4 10 4 7 11
10 11 10 2 0 -7 5 -10 12 -6 6 4 8 3 5 -4 -9 -14 3 -43 14 -36 8 4 14 -17 10
-38 -1 -8 15 -12 33 -9 5 1 6 -5 2 -14 -6 -16 28 -58 39 -47 3 4 3 -1 -1 -11
-4 -11 0 -19 10 -23 9 -3 16 -14 16 -24 0 -10 9 -22 20 -25 11 -3 20 -15 20
-25 0 -10 11 -28 25 -41 13 -13 25 -30 25 -36 0 -7 5 -13 11 -13 5 0 8 -4 5
-9 -3 -5 1 -11 9 -15 8 -3 15 -12 15 -21 0 -8 5 -15 11 -15 6 0 9 -7 5 -15 -3
-8 0 -14 7 -12 7 1 11 -4 9 -10 -1 -7 2 -13 8 -13 5 0 10 -7 10 -16 0 -8 4
-12 10 -9 6 3 10 -1 10 -9 0 -9 5 -16 10 -16 6 0 10 -6 10 -14 0 -7 10 -21 22
-30 13 -9 17 -14 10 -10 -11 5 -11 2 0 -15 7 -12 19 -21 26 -21 7 0 11 -4 8
-8 -3 -5 4 -18 14 -30 11 -12 20 -26 20 -32 0 -5 5 -10 11 -10 5 0 7 -5 4 -10
-3 -6 1 -13 9 -16 9 -3 16 -12 16 -20 0 -7 8 -19 18 -26 9 -7 17 -20 17 -28 0
-8 6 -14 13 -12 6 1 12 -5 12 -13 0 -18 31 -56 41 -49 4 2 5 -6 1 -18 -3 -14
-2 -19 6 -14 7 4 12 1 12 -8 0 -9 5 -16 10 -16 6 0 10 -7 10 -15 0 -8 5 -15
10 -15 6 0 10 -7 10 -15 0 -8 5 -15 11 -15 5 0 8 -4 5 -9 -3 -5 1 -11 9 -15 8
-3 15 -12 15 -21 0 -8 5 -15 11 -15 5 0 7 -5 3 -12 -4 -7 -3 -8 4 -4 6 3 16
-3 22 -15 10 -17 9 -20 -2 -14 -7 3 -6 1 3 -7 9 -7 14 -18 12 -25 -2 -6 1 -15
8 -19 8 -5 9 -3 4 6 -6 9 -4 11 4 6 7 -5 10 -14 7 -22 -3 -8 -1 -14 5 -14 6 0
8 -7 5 -16 -6 -15 -4 -15 11 -3 11 9 14 10 9 2 -4 -7 -2 -13 3 -13 6 0 11 -7
11 -15 0 -8 3 -14 8 -13 4 2 8 -1 9 -5 1 -5 11 -17 22 -26 11 -10 17 -22 13
-26 -4 -5 2 -5 13 -1 15 5 17 4 8 -4 -11 -12 -4 -25 40 -72 9 -10 14 -18 10
-18 -4 0 2 -7 13 -16 10 -8 12 -13 4 -9 -8 4 -4 -3 9 -14 13 -12 19 -21 15
-21 -5 0 -2 -5 6 -10 13 -8 13 -10 0 -10 -9 0 -6 -6 9 -16 15 -11 21 -23 18
-36 -5 -16 -3 -17 11 -6 9 7 14 8 9 3 -4 -4 1 -17 10 -28 11 -12 12 -17 4 -12
-10 5 -12 4 -7 -3 4 -7 15 -12 24 -13 13 0 13 -2 3 -6 -10 -4 -8 -9 10 -19 13
-7 18 -13 11 -14 -8 0 -6 -8 8 -22 11 -12 20 -26 20 -30 0 -5 4 -6 10 -3 6 3
10 -1 10 -9 0 -9 5 -16 11 -16 5 0 7 -5 3 -12 -5 -8 -2 -9 11 -4 15 5 16 4 5
-9 -10 -13 -9 -15 8 -15 16 0 20 -6 17 -25 -1 -14 2 -28 8 -32 6 -4 7 -1 2 7
-5 9 -4 11 3 6 7 -4 12 -14 12 -22 0 -9 5 -12 12 -8 7 4 8 3 4 -5 -4 -6 1 -19
11 -29 11 -9 12 -12 4 -7 -9 6 -3 -5 12 -23 15 -19 25 -38 22 -43 -4 -5 2 -6
11 -2 14 5 16 2 12 -14 -4 -17 -2 -20 16 -16 17 4 18 3 6 -6 -10 -7 -11 -11
-2 -11 6 0 12 -7 12 -15 0 -8 5 -15 10 -15 6 0 10 -7 10 -16 0 -10 5 -14 16
-10 8 3 12 2 9 -4 -3 -6 -1 -10 5 -10 7 0 9 -8 5 -20 -5 -16 -3 -19 11 -13 14
5 16 2 12 -19 -3 -19 -1 -25 11 -24 9 0 15 -5 13 -12 -1 -8 2 -12 8 -10 7 2
11 8 10 13 -1 6 9 12 22 15 13 3 24 11 24 18 1 7 2 17 3 23 0 5 5 7 11 4 5 -3
7 0 5 7 -3 8 3 23 14 35 11 11 17 24 14 27 -4 3 2 6 13 6 15 0 16 2 5 9 -11 7
-9 10 7 15 12 4 19 13 16 21 -3 7 0 16 7 21 8 5 10 3 4 -6 -5 -9 -4 -11 3 -6
7 4 12 19 12 34 0 19 3 23 9 13 6 -9 11 -10 15 -2 4 6 4 11 0 11 -4 0 0 8 9
18 10 10 14 22 10 27 -5 4 -1 6 8 2 11 -4 16 0 15 11 0 9 5 16 12 14 8 -1 11
2 8 7 -4 5 1 16 10 25 8 9 12 21 8 27 -4 8 -3 9 4 5 7 -4 12 -2 12 4 0 6 5 8
12 4 8 -5 9 -2 5 10 -4 10 -1 19 7 22 8 3 19 19 25 36 6 16 15 27 21 23 6 -4
10 5 10 20 0 14 3 24 8 22 11 -7 29 17 26 36 -1 9 1 16 4 16 21 -3 31 3 26 16
-4 8 -1 15 4 15 6 0 14 9 17 21 4 12 12 18 21 15 12 -5 12 -2 3 15 -8 15 -8
19 0 15 6 -4 11 -3 11 3 0 6 14 24 30 41 17 17 30 35 30 41 0 6 4 7 10 4 6 -3
7 1 4 9 -3 9 -1 16 6 16 6 0 9 4 6 9 -3 5 1 11 9 14 8 4 12 15 10 27 -3 18 -2
20 10 10 12 -10 13 -8 10 9 -3 14 1 18 11 14 10 -4 12 0 7 13 -4 12 -3 15 5
10 11 -6 17 11 13 36 0 4 5 5 13 2 8 -3 17 0 22 7 5 8 3 10 -7 5 -8 -4 -6 -1
3 7 10 8 15 17 11 20 -3 4 -1 7 7 7 10 0 10 3 0 15 -11 13 -10 14 3 9 17 -6
41 28 29 41 -4 5 -2 5 5 1 7 -3 14 2 18 14 4 11 11 18 16 15 8 -6 14 16 10 38
-1 5 2 6 6 4 9 -5 28 12 31 28 1 6 9 18 17 28 8 9 10 17 5 17 -5 0 -7 7 -4 15
4 8 11 12 17 8 6 -4 8 0 4 11 -4 10 -3 15 3 11 6 -3 10 -1 10 5 0 6 4 9 9 5 5
-3 13 0 17 6 4 7 3 9 -4 5 -6 -3 -13 -2 -17 4 -3 5 1 10 10 10 12 0 15 5 11
16 -5 14 -4 15 8 5 11 -9 14 -8 12 6 0 10 5 18 12 18 6 0 11 2 10 5 -1 3 5 16
12 30 8 14 13 29 12 34 -2 5 5 5 15 2 9 -4 15 -4 11 -1 -9 9 35 52 47 46 6 -3
5 2 -2 10 -10 12 -8 17 7 27 11 7 17 18 14 27 -4 8 -1 15 5 15 6 0 11 7 11 16
0 8 4 13 9 9 6 -3 8 4 6 15 -2 11 0 18 5 15 10 -6 50 42 50 61 0 8 5 14 11 14
5 0 7 5 4 10 -3 5 -2 10 3 10 5 0 12 9 15 21 3 12 10 18 17 14 6 -3 10 -3 9 2
-3 14 13 43 21 38 4 -3 7 3 6 12 0 9 10 23 24 30 14 7 19 13 12 13 -7 0 -10 5
-7 10 4 6 11 7 17 4 7 -5 9 -1 5 9 -3 9 4 26 18 41 12 13 20 27 17 30 -3 3 0
6 7 6 7 0 10 4 7 9 -3 5 1 12 10 15 8 3 12 10 9 16 -3 5 1 10 10 10 9 0 14 4
10 9 -3 6 3 14 12 20 10 5 15 13 11 16 -4 4 4 17 17 30 14 12 22 25 18 28 -3
4 -1 7 6 7 7 0 11 7 8 14 -4 11 -1 13 10 9 11 -4 14 -3 9 5 -4 7 -1 15 8 18 9
3 14 10 11 14 -3 5 4 11 15 15 11 4 18 11 14 16 -3 6 2 17 12 25 11 9 12 13 4
9 -8 -4 -4 3 10 15 14 12 18 19 10 15 -8 -4 -6 1 5 10 11 9 21 20 21 25 1 6 3
13 4 18 1 4 2 11 1 16 -1 5 5 4 13 -3 13 -11 15 -10 11 8 -3 15 1 21 13 21 15
0 15 2 2 10 -13 8 -13 10 1 10 9 0 19 9 22 21 4 13 10 18 17 14 9 -5 10 -1 5
15 -5 15 -4 20 4 16 6 -4 11 -1 11 7 0 8 7 17 15 21 8 3 14 11 13 18 -2 8 5
12 15 10 16 -3 17 0 7 19 -7 12 -8 19 -2 15 5 -3 15 1 22 9 7 8 9 15 4 15 -5
0 -2 5 6 10 8 5 15 15 15 22 1 7 7 12 14 10 7 -1 10 2 6 8 -3 5 -1 10 6 10 7
0 9 8 6 21 -4 15 -2 19 8 15 8 -3 17 4 20 15 4 12 16 30 27 41 11 11 17 26 14
33 -3 10 0 12 12 8 9 -3 14 -3 10 1 -4 5 4 19 18 33 29 28 30 34 7 27 -17 -5
-17 -5 0 6 9 6 23 8 30 4 6 -4 9 -4 5 1 -4 4 -2 15 5 23 10 13 9 14 -3 7 -10
-5 -8 -1 4 13 10 12 23 19 29 15 6 -4 7 -1 3 6 -5 7 -1 18 10 25 10 8 15 20
11 29 -4 12 -1 15 14 12 11 -2 17 0 14 4 -2 5 2 23 11 40 8 17 13 35 9 40 -3
6 3 8 15 6 11 -2 19 -1 19 3 -3 19 2 33 10 28 5 -3 8 2 7 12 0 10 6 17 15 16
11 -1 15 6 13 22 -1 13 2 21 7 18 6 -3 16 0 25 6 11 10 12 16 3 27 -10 11 -8
12 7 7 10 -4 16 -4 12 0 -4 5 5 19 19 32 17 15 21 24 12 25 -8 0 -4 5 9 11 12
6 22 18 22 26 0 8 8 21 18 28 16 13 16 14 -3 8 -20 -6 -20 -5 -1 10 11 9 16
16 10 16 -5 1 2 7 16 15 14 8 19 14 13 15 -7 0 -13 5 -13 11 0 5 5 7 10 4 6
-3 10 -2 10 4 0 6 10 20 23 32 12 12 15 18 7 14 -8 -4 -5 2 8 14 12 12 19 27
16 33 -5 7 -2 9 9 5 11 -4 15 -1 12 13 -2 12 1 17 9 14 12 -5 25 19 30 51 0 6
11 9 24 9 19 -1 20 1 10 14 -10 12 -10 14 0 8 11 -6 17 5 13 26 0 5 6 8 16 8
9 0 14 3 10 6 -6 7 29 84 39 84 3 0 2 -6 -2 -12 -4 -8 -3 -10 2 -5 5 5 9 12 9
15 2 21 18 52 25 47 4 -3 10 5 13 16 3 12 10 18 15 15 6 -4 8 3 4 16 -4 16 -2
19 8 13 10 -6 12 -4 6 11 -4 10 -4 15 0 12 7 -8 34 16 34 30 0 5 7 15 15 22 8
7 12 16 9 21 -3 5 5 9 18 9 16 0 19 3 10 9 -11 7 -11 9 2 14 9 4 15 11 14 16
-2 5 6 17 17 26 11 9 13 14 5 10 -10 -4 -9 -2 2 8 10 8 15 17 11 21 -4 4 2 9
14 12 13 4 20 11 16 20 -3 8 0 14 6 14 6 0 10 3 10 8 -3 19 2 33 10 28 5 -3
17 6 26 20 12 18 13 24 4 19 -8 -4 -3 2 10 13 14 11 22 26 18 34 -3 10 0 15
11 14 9 0 18 8 20 19 3 11 16 30 31 42 14 13 22 23 17 23 -4 0 2 9 15 21 13
11 18 17 11 14 -11 -6 -11 -3 -1 13 7 12 16 19 20 16 4 -2 9 6 12 17 4 14 10
18 19 13 9 -5 8 -2 -2 11 -14 17 -13 18 3 12 12 -5 16 -3 11 4 -4 7 4 21 17
31 13 11 17 17 9 13 -10 -4 -9 -2 2 8 10 8 15 17 11 20 -3 4 1 7 11 7 9 0 15
4 12 8 -7 12 29 63 39 55 4 -5 5 0 2 10 -4 9 -2 17 4 17 5 0 14 11 19 25 5 14
14 25 20 25 5 0 10 7 10 15 0 8 5 15 11 15 5 0 7 5 4 10 -3 6 1 10 9 10 9 0
16 5 16 11 0 5 -5 7 -12 3 -7 -5 -8 -3 -4 5 5 7 14 10 22 7 8 -3 11 0 7 10 -3
7 0 14 5 14 6 0 9 9 7 20 -2 11 1 19 8 17 7 -1 11 6 9 17 -3 15 1 18 18 13 18
-4 19 -3 9 9 -10 12 -9 13 6 8 12 -5 16 -4 11 4 -4 6 3 16 15 23 17 9 19 13 8
20 -12 7 -12 10 0 21 8 7 11 8 8 2 -3 -6 0 -11 8 -11 11 0 12 4 4 13 -6 7 -8
17 -5 23 4 5 -1 16 -10 25 -8 9 -13 20 -9 25 3 5 0 13 -6 17 -8 5 -9 3 -4 -6
5 -9 4 -11 -3 -6 -7 4 -12 14 -12 22 0 8 -5 14 -11 14 -5 0 -7 5 -4 10 3 6 -1
10 -9 10 -9 0 -16 9 -16 21 0 11 -4 17 -10 14 -5 -3 -10 1 -10 9 0 9 -4 16
-10 16 -5 0 -10 7 -10 15 0 7 -8 19 -17 24 -10 6 -14 11 -9 11 5 0 -4 12 -20
26 -16 15 -22 23 -14 19 8 -4 4 3 -10 14 -21 18 -22 20 -5 16 16 -4 15 -3 -3
6 -13 7 -21 18 -18 25 3 8 0 16 -6 20 -7 5 -8 2 -3 -6 6 -9 4 -11 -4 -6 -7 5
-10 14 -7 22 3 8 -1 14 -9 14 -8 0 -15 9 -15 21 0 13 -4 18 -12 13 -8 -5 -9
-2 -5 9 4 11 1 17 -7 17 -7 0 -20 8 -27 18 -13 15 -12 16 4 3 15 -12 17 -12
11 3 -3 9 -13 16 -21 16 -10 0 -13 6 -9 16 4 11 2 15 -8 11 -11 -4 -13 -1 -9
10 4 11 2 14 -5 9 -11 -6 -17 12 -13 37 1 5 -3 6 -8 3 -5 -3 -15 2 -22 11 -12
14 -12 16 1 9 9 -4 8 -1 -2 7 -10 8 -18 19 -18 24 0 6 -7 16 -15 23 -8 7 -12
16 -9 21 3 5 -3 6 -12 2 -11 -4 -15 -2 -11 4 4 6 -5 23 -18 39 -14 16 -23 35
-20 43 3 9 0 11 -10 7 -16 -6 -16 14 0 27 6 5 -1 5 -14 2 -16 -5 -21 -4 -17 4
4 6 2 11 -4 11 -6 0 -8 5 -5 10 3 6 2 10 -4 10 -5 0 -13 9 -16 20 -3 11 -13
20 -21 20 -8 0 -13 4 -9 9 3 5 -2 17 -11 25 -8 9 -12 16 -7 16 4 0 0 5 -9 11
-10 5 -18 17 -18 25 0 8 -13 28 -30 45 -16 18 -27 35 -24 40 3 5 -2 9 -10 9
-15 0 -21 17 -17 49 2 7 -2 10 -8 7 -12 -8 -43 48 -33 60 4 5 -1 2 -11 -5 -15
-12 -17 -12 -10 4 5 14 3 17 -10 12 -11 -4 -15 -1 -12 13 3 14 -1 18 -17 15
-16 -4 -18 -2 -8 10 10 11 10 15 1 15 -7 0 -9 4 -6 10 4 6 -1 7 -12 3 -15 -6
-16 -4 -5 9 10 13 10 18 1 24 -8 5 -10 3 -4 -7 4 -8 -1 -5 -12 6 -11 11 -19
23 -16 28 2 4 -1 7 -6 7 -6 0 -10 6 -8 13 1 6 -4 11 -12 9 -12 -3 -12 -1 0 14
9 12 9 15 2 10 -8 -4 -13 -2 -13 4 0 6 -4 8 -10 5 -6 -3 -7 1 -4 9 3 9 1 16
-6 16 -6 0 -8 5 -4 12 5 7 2 9 -8 6 -11 -5 -14 1 -13 23 1 15 -2 26 -6 23 -4
-2 -10 5 -14 16 -4 11 -17 31 -30 44 -13 13 -21 27 -17 32 4 4 -2 4 -12 0 -15
-5 -17 -4 -7 8 9 11 9 16 0 22 -8 5 -9 3 -4 -7 8 -12 6 -12 -8 0 -9 7 -17 18
-17 23 0 15 -27 38 -36 30 -5 -4 -3 0 4 10 10 12 10 18 1 24 -8 5 -9 3 -4 -6
6 -9 4 -11 -4 -5 -7 4 -10 16 -8 27 5 16 3 17 -9 7 -12 -9 -13 -9 -10 2 7 18
-19 53 -32 45 -6 -3 -8 2 -5 14 3 11 1 20 -5 20 -5 0 -13 11 -16 25 -4 14 -13
25 -21 25 -9 0 -12 8 -10 21 3 17 2 19 -10 9 -12 -10 -13 -8 -10 9 2 13 -4 26
-18 36 -12 8 -18 15 -14 15 4 0 2 6 -5 14 -7 8 -17 11 -23 8 -5 -3 -4 2 3 11
12 14 11 16 -7 12 -18 -3 -20 -1 -11 15 9 17 8 19 -7 13 -10 -3 -15 -3 -11 2
4 4 0 14 -8 22 -8 8 -11 20 -7 26 4 6 0 8 -10 4 -11 -4 -15 -1 -12 13 2 11 -1
19 -8 17 -7 -1 -11 4 -9 11 1 7 -5 15 -13 18 -8 3 -12 10 -9 15 3 5 -2 9 -10
9 -9 0 -16 5 -16 11 0 5 6 7 13 4 6 -4 4 0 -7 9 -11 9 -15 20 -10 28 6 10 5
10 -9 0 -14 -12 -16 -11 -12 6 2 11 -3 23 -11 26 -8 3 -14 13 -14 21 0 9 -4
13 -10 10 -6 -3 -10 1 -10 9 0 9 -4 16 -10 16 -5 0 -10 9 -10 20 0 11 -3 19
-7 18 -5 -2 -9 1 -10 5 -1 5 -11 16 -22 26 -11 9 -21 24 -23 31 -5 22 -22 39
-33 32 -5 -3 -3 3 5 13 9 11 10 16 3 11 -8 -4 -13 -2 -13 4 0 6 -4 9 -9 5 -6
-3 -8 4 -6 16 3 15 0 19 -11 15 -8 -3 -12 -2 -9 3 3 5 1 12 -5 16 -6 4 -8 11
-5 16 4 5 1 9 -5 9 -6 0 -8 5 -4 12 5 7 2 9 -7 6 -10 -4 -15 1 -16 15 -1 11
-9 25 -18 29 -8 5 -13 13 -10 19 3 5 -1 6 -11 2 -14 -5 -15 -3 -5 16 7 12 8
21 4 20 -16 -4 -43 14 -43 28 0 8 -4 12 -9 9 -4 -3 -7 5 -6 19 2 17 -1 22 -11
18 -8 -3 -14 1 -14 11 0 9 -5 16 -10 16 -6 0 -9 6 -8 13 2 6 -3 11 -10 9 -8
-1 -11 2 -7 8 3 5 -1 13 -10 16 -12 5 -13 9 -4 20 9 11 7 14 -10 14 -11 0 -21
5 -21 11 0 5 6 7 13 4 6 -4 2 2 -10 13 -16 14 -19 22 -11 30 9 9 6 10 -11 7
-12 -2 -19 0 -16 4 2 5 -2 14 -10 21 -8 7 -15 21 -15 31 0 11 -6 18 -12 17 -8
-2 -12 6 -10 22 2 20 1 22 -7 10 -10 -13 -11 -13 -12 0 -1 8 -1 18 0 22 0 4
-9 5 -20 3 -16 -3 -18 -1 -10 9 8 10 5 16 -14 26 -14 7 -25 18 -25 23 0 6 10
2 22 -9 16 -14 15 -10 -6 19 -16 20 -32 37 -37 37 -5 0 -9 9 -9 20 0 11 -4 20
-10 20 -5 0 -10 7 -10 16 0 9 -5 12 -12 8 -9 -5 -8 -2 1 9 12 15 12 17 -3 11
-13 -5 -15 -2 -10 12 4 11 4 16 -1 12 -9 -8 -35 15 -35 32 0 6 -5 8 -12 4 -6
-4 -8 -3 -4 4 3 6 -5 22 -19 36 -27 27 -33 42 -12 30 7 -4 9 -3 4 2 -5 5 -13
10 -18 10 -22 3 -23 5 -10 13 11 7 9 10 -8 16 -11 3 -21 13 -21 21 0 8 -6 17
-14 20 -9 3 -12 12 -9 21 5 12 3 14 -7 8 -10 -6 -12 -3 -8 13 4 15 2 19 -8 15
-9 -3 -19 6 -27 26 -7 17 -17 28 -22 24 -5 -5 -3 1 5 11 14 18 13 19 -2 13
-13 -4 -16 -1 -13 14 2 11 1 17 -4 15 -4 -3 -13 -1 -21 5 -12 6 -12 9 -2 9 10
0 9 4 -2 16 -9 8 -14 19 -11 23 2 5 -7 13 -20 19 -23 10 -30 23 -26 45 0 4 -9
7 -22 7 -18 0 -19 2 -7 10 14 9 7 14 -13 11 -5 -1 -6 3 -3 8 4 5 0 16 -8 24
-8 8 -12 18 -8 22 4 5 -1 5 -10 2 -12 -4 -15 -2 -11 8 3 8 -2 18 -11 21 -9 3
-16 13 -16 21 0 8 -11 29 -26 45 -15 18 -23 37 -19 47 3 8 3 12 -1 9 -8 -8
-28 10 -37 35 -3 9 -14 17 -24 17 -14 0 -15 2 -4 9 11 7 9 10 -7 15 -14 5 -19
14 -18 31 2 16 -1 22 -10 18 -8 -3 -14 0 -14 7 0 6 -7 18 -15 27 -8 8 -12 20
-8 26 4 7 1 7 -9 -1 -14 -11 -16 -10 -11 7 4 15 1 21 -10 21 -10 0 -15 7 -12
19 3 15 -1 19 -16 16 -17 -3 -18 -1 -8 18 7 12 8 19 4 15 -12 -12 -34 15 -23
29 7 9 4 11 -11 8 -21 -4 -25 13 -6 27 6 4 -1 8 -14 8 -16 0 -21 4 -17 15 3 8
0 14 -7 12 -7 -1 -12 8 -11 19 0 14 -4 20 -13 17 -12 -5 -17 7 -10 23 1 3 -11
12 -28 20 -26 12 -26 13 -5 9 25 -6 25 -5 -2 10 -16 9 -28 21 -28 27 0 6 -8
17 -17 25 -10 8 -13 12 -6 9 7 -4 9 1 6 14 -5 17 -8 18 -21 8 -12 -10 -14 -10
-8 0 4 7 2 12 -6 12 -9 0 -9 3 2 10 14 9 7 14 -13 11 -5 -1 -5 8 -2 20 4 12 3
19 -1 16 -5 -3 -14 1 -21 8 -10 11 -10 15 0 19 7 4 2 4 -10 2 -16 -3 -21 1
-18 15 2 10 -1 21 -6 24 -5 4 -6 11 -3 17 4 6 2 8 -4 4 -6 -3 -13 3 -17 14 -3
11 -15 25 -26 31 -12 6 -18 17 -15 25 3 8 0 13 -7 11 -7 -1 -11 4 -9 11 1 6
-1 11 -5 10 -5 -2 -9 1 -10 5 -1 5 -10 15 -20 23 -10 7 -14 14 -10 14 5 0 1 7
-8 16 -9 9 -13 24 -10 32 3 9 3 13 -1 9 -5 -4 -14 3 -21 15 -7 13 -12 17 -13
11 0 -7 -5 -13 -11 -13 -5 0 -8 4 -5 8 6 11 -19 11 -35 2z m-1604 -2350 c-3
-5 -12 -10 -18 -10 -7 0 -6 4 3 10 19 12 23 12 15 0z m-50 -70 c3 -5 1 -10 -4
-10 -6 0 -11 5 -11 10 0 6 2 10 4 10 3 0 8 -4 11 -10z m-315 -454 c0 -3 -4 -8
-10 -11 -5 -3 -10 -1 -10 4 0 6 5 11 10 11 6 0 10 -2 10 -4z m4185 -266 c3 -5
1 -10 -4 -10 -6 0 -11 5 -11 10 0 6 2 10 4 10 3 0 8 -4 11 -10z m12 -2503 c0
-8 -6 -14 -14 -14 -9 0 -10 4 -2 14 6 7 12 13 14 13 1 0 2 -6 2 -13z m53 -47
c-20 -13 -30 -12 -30 1 0 5 4 8 9 4 5 -3 13 0 16 6 4 5 10 8 13 4 4 -3 0 -10
-8 -15z m-6 -28 c3 -5 -1 -9 -9 -9 -8 0 -15 4 -15 9 0 4 4 8 9 8 6 0 12 -4 15
-8z m-4874 -142 c0 -5 -2 -10 -4 -10 -3 0 -8 5 -11 10 -3 6 -1 10 4 10 6 0 11
-4 11 -10z m3735 -2230 c-3 -5 -12 -10 -18 -10 -7 0 -6 4 3 10 19 12 23 12 15
0z m-1438 -1105 c0 -8 -4 -12 -9 -9 -5 3 -6 10 -3 15 9 13 12 11 12 -6z"/>
<path d="M6427 7999 c7 -7 15 -10 18 -7 3 3 -2 9 -12 12 -14 6 -15 5 -6 -5z"/>
<path d="M8210 4829 c0 -5 5 -7 10 -4 6 3 10 8 10 11 0 2 -4 4 -10 4 -5 0 -10
-5 -10 -11z"/>
</g>
</svg>
