<svg xmlns="http://www.w3.org/2000/svg" version="1.1"
   xmlns:xlink="http://www.w3.org/1999/xlink" width="512" height="512" x="0" y="0" viewBox="0 0 64 64" style="enable-background:new 0 0 512 512" xml:space="preserve" >
   <g>
      <g fill="#cd4527">
         <path d="M56.12 31.38h-2.87V5.12c0-.55-.45-1-1-1h-40.5c-.55 0-1 .45-1 1v26.26H7.88c-.56 0-1 .44-1 1v19.24c0 .56.44 1 1 1h2.87v6.26c0 .55.45 1 1 1h40.5c.55 0 1-.45 1-1v-6.26h2.87c.56 0 1-.44 1-1V32.38c0-.56-.44-1-1-1zm-4.87 26.5h-38.5v-5.26h38.5zm-33-10.63V36.51c0-.13.12-.25.25-.25h3.48c1.36 0 2.22.061 2.65.17.66.181 1.23.561 1.68 1.141.44.58.67 1.34.67 2.25 0 .689-.13 1.29-.39 1.779-.25.48-.59.86-.99 1.141-.39.279-.8.46-1.21.55-.54.11-1.29.16-2.3.16h-1.17v3.8c0 .14-.11.25-.25.25H18.5a.256.256 0 0 1-.25-.251zm10.01 0V36.51c0-.13.11-.25.25-.25h3.48c1.35 0 2.22.061 2.64.17.67.181 1.23.561 1.68 1.141s.671 1.34.671 2.25c0 .689-.131 1.29-.381 1.779-.26.48-.59.86-.989 1.141-.4.279-.811.46-1.221.55-.54.11-1.29.16-2.3.16h-1.16v3.8c0 .14-.11.25-.25.25h-2.17a.249.249 0 0 1-.25-.251zm9.49-8.67c-.14 0-.25-.11-.25-.25v-1.82c0-.13.11-.25.25-.25h8.53c.14 0 .25.12.25.25v1.82c0 .14-.11.25-.25.25h-2.93v8.67c0 .14-.109.25-.25.25h-2.17c-.14 0-.25-.11-.25-.25v-8.67zm13.5-7.2h-38.5V6.12h38.5z" fill="#cd4527" data-original="#cd4527" ></path>
         <path d="M24.25 39.85c0 .261-.07.49-.21.69-.13.2-.32.34-.56.43-.17.07-.6.16-1.62.16h-.94v-2.55h.8c.76 0 1.27.02 1.52.07.29.05.53.18.73.399.18.201.28.471.28.801zM34.25 39.85c0 .261-.07.49-.2.69-.14.2-.319.34-.56.43-.181.07-.6.16-1.63.16h-.93v-2.55h.8c.76 0 1.27.02 1.51.07.3.05.54.18.729.399.191.201.281.471.281.801zM46.75 13.375h-29.5a1 1 0 1 1 0-2h29.5a1 1 0 1 1 0 2zM46.75 20.375h-29.5a1 1 0 1 1 0-2h29.5a1 1 0 1 1 0 2zM46.75 27.375h-29.5a1 1 0 1 1 0-2h29.5a1 1 0 1 1 0 2z" fill="#cd4527" data-original="#cd4527" ></path>
      </g>
   </g>
</svg>