<svg xmlns="http://www.w3.org/2000/svg" version="1.1"
   xmlns:xlink="http://www.w3.org/1999/xlink" width="512" height="512" x="0" y="0" viewBox="0 0 512 512" style="enable-background:new 0 0 512 512" xml:space="preserve" >
   <g>
      <path fill="#f15642" d="M440.1 141.4v308.9c0 34.1-27.6 61.7-61.7 61.7H133.6c-34.1 0-61.7-27.6-61.7-61.7V61.7C71.9 27.6 99.5 0 133.6 0h165.1z" data-original="#f15642" ></path>
      <path fill="#ff9587" d="M440.1 141.4H324.2c-14.1 0-25.5-11.4-25.5-25.5V0z" data-original="#ff9587"></path>
      <g fill="#fff">
         <path d="M184 276c0 21.3-11.3 33.1-31.2 33.1h-12.2v35.7H126V243.2h26.9c19.8 0 31.1 12.1 31.1 32.8zm-14.9 0c0-12.5-5.4-18.9-16.4-18.9h-12v38h12c11 .1 16.4-6 16.4-19.1zM254.5 276c0 21.3-11.3 33.1-31.2 33.1h-12.2v35.7h-14.6V243.2h26.8c19.9 0 31.2 12.1 31.2 32.8zm-15 0c0-12.5-5.4-18.9-16.4-18.9h-12v38h12c11.1.1 16.4-6 16.4-19.1zM316.9 257.2h-21.2v87.6h-14.9v-87.6h-21v-13.9h57.1zM369.8 344.8l-16-37.6-16.1 37.6h-16.2l24.2-52.6-22.8-48.9H339l14.8 34.4 14.6-34.4h16.1l-22.8 48.9 24.2 52.6z" fill="#ffffff" data-original="#ffffff" ></path>
      </g>
   </g>
</svg>